<?xml version="1.0" encoding="UTF-8" standalone="no"?>
<svg viewBox="0 0 552 191" version="1.1" xmlns="http://www.w3.org/2000/svg" xmlns:xlink="http://www.w3.org/1999/xlink" xmlns:sketch="http://www.bohemiancoding.com/sketch/ns">
    <title>Untitled</title>
    <description>Created with Sketch (http://www.bohemiancoding.com/sketch)</description>
    <defs></defs>
    <g id="Page-1" stroke="none" stroke-width="1" fill="none" fill-rule="evenodd" sketch:type="MSPage">
        <g id="header-+-:-+-about" sketch:type="MSLayerGroup" transform="translate(1.000000, 1.000000)" fill="#799938">
            <g id="header" sketch:type="MSShapeGroup">
                <g id="Page-1">
                    <path d="M0.513513514,54.2857143 L0.513513514,0.217142857 L11.7837838,0.217142857 L11.7837838,54.2857143 L0.513513514,54.2857143 L0.513513514,54.2857143 Z M41.2162162,54.2857143 L41.2162162,30.02 C41.2162162,26.9256988 40.7027078,24.8357197 39.6756757,23.75 C38.6486435,22.6642803 36.8919043,22.1214286 34.4054054,22.1214286 C28.9459186,22.1214286 26.2162162,25.1885408 26.2162162,31.3228571 L26.2162162,54.2857143 L15.6756757,54.2857143 L15.6756757,14.2228571 L25.7297297,14.2228571 L25.7297297,20.0857143 C26.9729792,17.8057029 28.6216114,16.0821487 30.6756757,14.915 C32.72974,13.7478513 35.3783622,13.1642857 38.6216216,13.1642857 C40.513523,13.1642857 42.2702622,13.4492829 43.8918919,14.0192857 C45.5135216,14.5892886 46.9053996,15.44428 48.0675676,16.5842857 C49.2297355,17.7242914 50.1486453,19.1221346 50.8243243,20.7778571 C51.5000034,22.4335797 51.8378378,24.347132 51.8378378,26.5185714 L51.8378378,54.2857143 L41.2162162,54.2857143 L41.2162162,54.2857143 Z M65.7027027,37.0228571 C65.8648657,40.0628723 66.7432353,42.4785625 68.3378378,44.27 C69.9324404,46.0614375 72.0270141,46.9571429 74.6216216,46.9571429 C76.35136,46.9571429 77.8783718,46.5635754 79.2027027,45.7764286 C80.5270336,44.9892818 81.3783765,43.8900071 81.7567568,42.4785714 L92.6216216,42.4785714 C91.3783722,46.6043063 89.2162316,49.7799889 86.1351351,52.0057143 C83.0540386,54.2314397 79.3783997,55.3442857 75.1081081,55.3442857 C61.8107443,55.3442857 55.1621622,48.0700727 55.1621622,33.5214286 C55.1621622,30.4271274 55.5945903,27.6314411 56.4594595,25.1342857 C57.3243286,22.6371304 58.5810728,20.4928661 60.2297297,18.7014286 C61.8783866,16.909991 63.89188,15.5392905 66.2702703,14.5892857 C68.6486605,13.639281 71.378363,13.1642857 74.4594595,13.1642857 C80.6216524,13.1642857 85.283768,15.1456945 88.4459459,19.1085714 C91.6081239,23.0714484 93.1891892,29.0428172 93.1891892,37.0228571 L65.7027027,37.0228571 L65.7027027,37.0228571 Z M82.3243243,30.3457143 C82.27027,28.8799927 82.0135158,27.5907199 81.5540541,26.4778571 C81.0945923,25.3649944 80.4864903,24.4421465 79.7297297,23.7092857 C78.9729692,22.9764249 78.108113,22.4335732 77.1351351,22.0807143 C76.1621573,21.7278554 75.1621673,21.5514286 74.1351351,21.5514286 C72.0270165,21.5514286 70.2027104,22.3249923 68.6621622,23.8721429 C67.1216139,25.4192935 66.2432443,27.577129 66.027027,30.3457143 L82.3243243,30.3457143 L82.3243243,30.3457143 Z M106.324324,54.2857143 L92.0540541,14.2228571 L103.810811,14.2228571 L112.162162,40.6871429 L120.594595,14.2228571 L131.702703,14.2228571 L117.351351,54.2857143 L106.324324,54.2857143 L106.324324,54.2857143 Z M134.378378,54.2857143 L134.378378,14.2228571 L144.918919,14.2228571 L144.918919,54.2857143 L134.378378,54.2857143 L134.378378,54.2857143 Z M134.378378,9.41857143 L134.378378,-0.434285714 L144.918919,-0.434285714 L144.918919,9.41857143 L134.378378,9.41857143 L134.378378,9.41857143 Z M172,27.9028571 L181.810811,27.9028571 L181.810811,39.3028571 C181.810811,41.4200106 181.500003,43.4421332 180.878378,45.3692857 C180.256754,47.2964382 179.283791,49.0064211 177.959459,50.4992857 C176.635128,51.9921503 174.95947,53.1728528 172.932432,54.0414286 C170.905395,54.9100043 168.4865,55.3442857 165.675676,55.3442857 C162.756742,55.3442857 160.270281,54.9100043 158.216216,54.0414286 C156.162151,53.1728528 154.47298,52.0057216 153.148649,50.54 C151.824318,49.0742784 150.864868,47.3642955 150.27027,45.41 C149.675673,43.4557045 149.378378,41.392868 149.378378,39.2214286 L149.378378,3.39285714 L159.756757,3.39285714 L159.756757,14.2228571 L181.810811,14.2228571 L181.810811,21.7142857 L159.756757,21.7142857 L159.756757,38.1628571 C159.756757,40.7142985 160.229726,42.6821359 161.175676,44.0664286 C162.121626,45.4507212 163.675665,46.1428571 165.837838,46.1428571 C167.945957,46.1428571 169.499995,45.4642925 170.5,44.1071429 C171.500005,42.7499932 172,40.8228696 172,38.3257143 L172,27.9028571 L172,27.9028571 Z M210.594595,54.2857143 C210.270269,53.2542806 210.054054,52.0600068 209.945946,50.7028571 C208.702696,52.1142928 207.054065,53.2407101 205,54.0821429 C202.945935,54.9235756 200.567581,55.3442857 197.864865,55.3442857 C193.270247,55.3442857 189.905416,54.3264388 187.77027,52.2907143 C185.635124,50.2549898 184.567568,47.6085877 184.567568,44.3514286 C184.567568,41.4742713 185.027023,39.1807228 185.945946,37.4707143 C186.864869,35.7607057 188.135127,34.4171477 189.756757,33.44 C191.378386,32.4628523 193.3108,31.7435737 195.554054,31.2821429 C197.797308,30.820712 200.24323,30.4000019 202.891892,30.02 C205.540554,29.6399981 207.32432,29.1378603 208.243243,28.5135714 C209.162166,27.8892826 209.621622,26.8714356 209.621622,25.46 C209.621622,24.1571363 209.01352,23.1392894 207.797297,22.4064286 C206.581074,21.6735678 204.945957,21.3071429 202.891892,21.3071429 C200.459447,21.3071429 198.716222,21.8499946 197.662162,22.9357143 C196.608103,24.021434 195.945947,25.459991 195.675676,27.2514286 L185.864865,27.2514286 C185.918919,25.1885611 186.256754,23.2885801 186.878378,21.5514286 C187.500003,19.814277 188.499993,18.3214348 189.878378,17.0728571 C191.256764,15.8242795 193.054043,14.8607177 195.27027,14.1821429 C197.486497,13.503568 200.189173,13.1642857 203.378378,13.1642857 C206.51353,13.1642857 209.175665,13.5171393 211.364865,14.2228571 C213.554065,14.928575 215.310804,15.9464219 216.635135,17.2764286 C217.959466,18.6064352 218.918916,20.2621329 219.513514,22.2435714 C220.108111,24.2250099 220.405405,26.4642732 220.405405,28.9614286 L220.405405,54.2857143 L210.594595,54.2857143 L210.594595,54.2857143 Z M209.864865,34.6614286 C209.324322,35.2042884 208.540546,35.6385698 207.513514,35.9642857 C206.486481,36.2900016 205.000009,36.6428552 203.054054,37.0228571 C200.027012,37.620003 197.945951,38.3799954 196.810811,39.3028571 C195.67567,40.2257189 195.108108,41.5557056 195.108108,43.2928571 C195.108108,46.2785864 196.810793,47.7714286 200.216216,47.7714286 C201.567574,47.7714286 202.824319,47.5407166 203.986486,47.0792857 C205.148654,46.6178548 206.148645,45.9935754 206.986486,45.2064286 C207.824328,44.4192818 208.499997,43.4964339 209.013514,42.4378571 C209.52703,41.3792804 209.783784,40.2528631 209.783784,39.0585714 L209.864865,34.6614286 L209.864865,34.6614286 Z M224.621622,54.2857143 L224.621622,-0.434285714 L235,-0.434285714 L235,19.4342857 C237.972988,15.2542648 241.918895,13.1642857 246.837838,13.1642857 C249.432446,13.1642857 251.743232,13.6664236 253.77027,14.6707143 C255.797307,15.675005 257.513507,17.0999908 258.918919,18.9457143 C260.324331,20.7914378 261.391888,22.976416 262.121622,25.5007143 C262.851355,28.0250126 263.216216,30.8071277 263.216216,33.8471429 C263.216216,37.212874 262.783788,40.225701 261.918919,42.8857143 C261.05405,45.5457276 259.864873,47.7985622 258.351351,49.6442857 C256.83783,51.4900092 255.013524,52.9014237 252.878378,53.8785714 C250.743232,54.8557192 248.432445,55.3442857 245.945946,55.3442857 C240.972949,55.3442857 237.270282,53.362877 234.837838,49.4 L234.756757,54.2857143 L224.621622,54.2857143 L224.621622,54.2857143 Z M243.513514,46.7128571 C246.162176,46.7128571 248.324316,45.5864398 250,43.3335714 C251.675684,41.080703 252.513514,38.1628751 252.513514,34.58 C252.513514,26.3285302 249.486516,22.2028571 243.432432,22.2028571 C237.540511,22.2028571 234.594595,26.5456709 234.594595,35.2314286 C234.594595,38.6514457 235.445938,41.4199894 237.148649,43.5371429 C238.851359,45.6542963 240.972961,46.7128571 243.513514,46.7128571 L243.513514,46.7128571 Z M266.702703,54.2857143 L266.702703,-0.434285714 L277.243243,-0.434285714 L277.243243,54.2857143 L266.702703,54.2857143 L266.702703,54.2857143 Z M291.027027,37.0228571 C291.189191,40.0628723 292.067559,42.4785625 293.662162,44.27 C295.256765,46.0614375 297.351338,46.9571429 299.945946,46.9571429 C301.675684,46.9571429 303.202696,46.5635754 304.527027,45.7764286 C305.851358,44.9892818 306.702701,43.8900071 307.081081,42.4785714 L317.945946,42.4785714 C316.702696,46.6043063 314.540555,49.7799889 311.459459,52.0057143 C308.378364,54.2314397 304.702724,55.3442857 300.432432,55.3442857 C287.135069,55.3442857 280.486486,48.0700727 280.486486,33.5214286 C280.486486,30.4271274 280.918915,27.6314411 281.783784,25.1342857 C282.648653,22.6371304 283.905397,20.4928661 285.554054,18.7014286 C287.202711,16.909991 289.216204,15.5392905 291.594595,14.5892857 C293.972985,13.639281 296.702688,13.1642857 299.783784,13.1642857 C305.945977,13.1642857 310.608092,15.1456945 313.77027,19.1085714 C316.932449,23.0714484 318.513514,29.0428172 318.513514,37.0228571 L291.027027,37.0228571 L291.027027,37.0228571 Z M307.648649,30.3457143 C307.594595,28.8799927 307.337841,27.5907199 306.878378,26.4778571 C306.418916,25.3649944 305.810815,24.4421465 305.054054,23.7092857 C304.297293,22.9764249 303.432438,22.4335732 302.459459,22.0807143 C301.486481,21.7278554 300.486492,21.5514286 299.459459,21.5514286 C297.351341,21.5514286 295.527035,22.3249923 293.986486,23.8721429 C292.445938,25.4192935 291.567569,27.577129 291.351351,30.3457143 L307.648649,30.3457143 L307.648649,30.3457143 Z M372.918919,54.2857143 L372.918919,40.3614286 C372.918919,37.7557013 372.32433,35.8964341 371.135135,34.7835714 C369.945941,33.6707087 367.729746,33.1142857 364.486486,33.1142857 L352.486486,33.1142857 L352.486486,54.2857143 L341.540541,54.2857143 L341.540541,0.217142857 L368.864865,0.217142857 C371.351364,0.217142857 373.608097,0.61071035 375.635135,1.39785714 C377.662172,2.18500394 379.405399,3.27070736 380.864865,4.655 C382.324331,6.03929264 383.445942,7.69499036 384.22973,9.62214286 C385.013518,11.5492953 385.405405,13.6257032 385.405405,15.8514286 C385.405405,18.7828718 384.716223,21.3749887 383.337838,23.6278571 C381.959453,25.8807256 379.972986,27.4685668 377.378378,28.3914286 C379.756769,29.1514324 381.445941,30.3185636 382.445946,31.8928571 C383.445951,33.4671507 383.945946,35.8285557 383.945946,38.9771429 L383.945946,54.2857143 L372.918919,54.2857143 L372.918919,54.2857143 Z M352.486486,9.58142857 L352.486486,23.9942857 L366.594595,23.9942857 C369.621636,23.9942857 371.75675,23.3157211 373,21.9585714 C374.24325,20.6014218 374.864865,18.8914389 374.864865,16.8285714 C374.864865,14.711418 374.256762,12.9742925 373.040541,11.6171429 C371.824318,10.2599932 369.810824,9.58142857 367,9.58142857 L352.486486,9.58142857 L352.486486,9.58142857 Z M388.486486,54.2857143 L388.486486,14.2228571 L399.027027,14.2228571 L399.027027,54.2857143 L388.486486,54.2857143 L388.486486,54.2857143 Z M388.486486,9.41857143 L388.486486,-0.434285714 L399.027027,-0.434285714 L399.027027,9.41857143 L388.486486,9.41857143 L388.486486,9.41857143 Z M427.486486,26.3557143 C427.216215,24.5099908 426.527032,23.1664328 425.418919,22.325 C424.310805,21.4835672 422.621632,21.0628571 420.351351,21.0628571 C418.189178,21.0628571 416.554059,21.3207117 415.445946,21.8364286 C414.337832,22.3521454 413.783784,23.2342795 413.783784,24.4828571 C413.783784,25.5685769 414.337832,26.4371396 415.445946,27.0885714 C416.554059,27.7400033 418.162151,28.3642827 420.27027,28.9614286 C423.729747,29.9385763 426.648636,30.7664252 429.027027,31.445 C431.405418,32.1235748 433.310804,32.9242811 434.743243,33.8471429 C436.175682,34.7700046 437.2027,35.9235645 437.824324,37.3078571 C438.445949,38.6921498 438.756757,40.5514169 438.756757,42.8857143 C438.756757,46.4685893 437.270285,49.4407025 434.297297,51.8021429 C431.324309,54.1635832 426.918949,55.3442857 421.081081,55.3442857 C418.216201,55.3442857 415.621634,55.0185747 413.297297,54.3671429 C410.972961,53.715711 408.986495,52.7792918 407.337838,51.5578571 C405.689181,50.3364225 404.418923,48.8707228 403.527027,47.1607143 C402.635131,45.4507057 402.162162,43.5371534 402.108108,41.42 L412.972973,41.42 C412.972973,43.3200095 413.716208,44.7857091 415.202703,45.8171429 C416.689196,46.8485766 418.621609,47.3642857 421,47.3642857 C423.000009,47.3642857 424.716209,47.052146 426.148649,46.4278571 C427.581088,45.8035683 428.297297,44.8400065 428.297297,43.5371429 C428.297297,42.0714212 427.770276,41.0128604 426.716216,40.3614286 C425.662157,39.7099967 424.054065,39.1400024 421.891892,38.6514286 C417.999981,37.7828528 414.864877,36.8735762 412.486486,35.9235714 C410.108096,34.9735667 408.256764,33.9285771 406.932432,32.7885714 C405.608101,31.6485657 404.716219,30.4000068 404.256757,29.0428571 C403.797295,27.6857075 403.567568,26.1657227 403.567568,24.4828571 C403.567568,22.9628495 403.878376,21.5242925 404.5,20.1671429 C405.121624,18.8099932 406.108101,17.6157194 407.459459,16.5842857 C408.810818,15.552852 410.567557,14.7250031 412.72973,14.1007143 C414.891903,13.4764254 417.540524,13.1642857 420.675676,13.1642857 C426.405434,13.1642857 430.594581,14.3314169 433.243243,16.6657143 C435.891905,19.0000117 437.35135,22.2299794 437.621622,26.3557143 L427.486486,26.3557143 L427.486486,26.3557143 Z M451,37.0228571 C451.162164,40.0628723 452.040532,42.4785625 453.635135,44.27 C455.229738,46.0614375 457.324311,46.9571429 459.918919,46.9571429 C461.648657,46.9571429 463.175669,46.5635754 464.5,45.7764286 C465.824331,44.9892818 466.675674,43.8900071 467.054054,42.4785714 L477.918919,42.4785714 C476.675669,46.6043063 474.513528,49.7799889 471.432432,52.0057143 C468.351336,54.2314397 464.675697,55.3442857 460.405405,55.3442857 C447.108042,55.3442857 440.459459,48.0700727 440.459459,33.5214286 C440.459459,30.4271274 440.891888,27.6314411 441.756757,25.1342857 C442.621626,22.6371304 443.87837,20.4928661 445.527027,18.7014286 C447.175684,16.909991 449.189177,15.5392905 451.567568,14.5892857 C453.945958,13.639281 456.675661,13.1642857 459.756757,13.1642857 C465.91895,13.1642857 470.581065,15.1456945 473.743243,19.1085714 C476.905422,23.0714484 478.486486,29.0428172 478.486486,37.0228571 L451,37.0228571 L451,37.0228571 Z M467.621622,30.3457143 C467.567568,28.8799927 467.310814,27.5907199 466.851351,26.4778571 C466.391889,25.3649944 465.783788,24.4421465 465.027027,23.7092857 C464.270266,22.9764249 463.405411,22.4335732 462.432432,22.0807143 C461.459454,21.7278554 460.459465,21.5514286 459.432432,21.5514286 C457.324314,21.5514286 455.500008,22.3249923 453.959459,23.8721429 C452.418911,25.4192935 451.540542,27.577129 451.324324,30.3457143 L467.621622,30.3457143 L467.621622,30.3457143 Z M20.3783784,123.201429 C17.1351189,123.201429 14.2432559,122.685719 11.7027027,121.654286 C9.16214946,120.622852 7.0135223,119.184295 5.25675676,117.338571 C3.49999122,115.492848 2.16216676,113.267156 1.24324324,110.661429 C0.32431973,108.055701 -0.135135135,105.20573 -0.135135135,102.111429 C-0.135135135,98.9628414 0.337833108,96.0857273 1.28378378,93.48 C2.22973446,90.8742727 3.59458568,88.6485807 5.37837838,86.8028571 C7.16217108,84.9571336 9.31079824,83.5321479 11.8243243,82.5278571 C14.3378504,81.5235664 17.1891732,81.0214286 20.3783784,81.0214286 C23.5135292,81.0214286 26.3243119,81.5235664 28.8108108,82.5278571 C31.2973097,83.5321479 33.4189101,84.9435623 35.1756757,86.7621429 C36.9324412,88.5807234 38.2837791,90.7928441 39.2297297,93.3985714 C40.1756804,96.0042987 40.6486486,98.9085554 40.6486486,102.111429 C40.6486486,105.314302 40.1756804,108.204987 39.2297297,110.783571 C38.2837791,113.362156 36.9324412,115.574276 35.1756757,117.42 C33.4189101,119.265724 31.2837964,120.690709 28.7702703,121.695 C26.2567442,122.699291 23.4594749,123.201429 20.3783784,123.201429 L20.3783784,123.201429 Z M20.3783784,114.325714 C26.810843,114.325714 30.027027,110.254326 30.027027,102.111429 C30.027027,94.0228167 26.810843,89.9785714 20.3783784,89.9785714 C13.9459138,89.9785714 10.7297297,94.0228167 10.7297297,102.111429 C10.7297297,110.254326 13.9459138,114.325714 20.3783784,114.325714 L20.3783784,114.325714 Z M45.1081081,122.142857 L45.1081081,89.5714286 L39.1891892,89.5714286 L39.1891892,82.08 L45.1081081,82.08 C45.1081081,72.3085226 50.7567003,67.4228571 62.0540541,67.4228571 L62.0540541,75.9728571 C60.7026959,75.9728571 59.6081123,76.0678562 58.7702703,76.2578571 C57.9324282,76.4478581 57.2702727,76.7871404 56.7837838,77.2757143 C56.2972949,77.7642882 55.9594604,78.4021389 55.7702703,79.1892857 C55.5810801,79.9764325 55.4864865,80.9399943 55.4864865,82.08 L62.2972973,82.08 L62.2972973,89.5714286 L55.4864865,89.5714286 L55.4864865,122.142857 L45.1081081,122.142857 L45.1081081,122.142857 Z M107.054054,95.76 L116.864865,95.76 L116.864865,107.16 C116.864865,109.277153 116.554057,111.299276 115.932432,113.226429 C115.310808,115.153581 114.337844,116.863564 113.013514,118.356429 C111.689183,119.849293 110.013524,121.029996 107.986486,121.898571 C105.959449,122.767147 103.540555,123.201429 100.72973,123.201429 C97.8107962,123.201429 95.3243346,122.767147 93.2702703,121.898571 C91.2162059,121.029996 89.5270336,119.862864 88.2027027,118.397143 C86.8783718,116.931421 85.9189219,115.221438 85.3243243,113.267143 C84.7297268,111.312847 84.4324324,109.250011 84.4324324,107.078571 L84.4324324,71.25 L94.8108108,71.25 L94.8108108,82.08 L116.864865,82.08 L116.864865,89.5714286 L94.8108108,89.5714286 L94.8108108,106.02 C94.8108108,108.571441 95.2837791,110.539279 96.2297297,111.923571 C97.1756804,113.307864 98.7297189,114 100.891892,114 C103.000011,114 104.554049,113.321435 105.554054,111.964286 C106.554059,110.607136 107.054054,108.680012 107.054054,106.182857 L107.054054,95.76 L107.054054,95.76 Z M146.216216,122.142857 L146.216216,97.3071429 C146.216216,94.2671277 145.689195,92.1907198 144.635135,91.0778571 C143.581076,89.9649944 141.83785,89.4085714 139.405405,89.4085714 C138.108101,89.4085714 136.945951,89.666426 135.918919,90.1821429 C134.891886,90.6978597 134.027031,91.4035669 133.324324,92.2992857 C132.621618,93.1950045 132.094596,94.2264227 131.743243,95.3935714 C131.39189,96.5607201 131.216216,97.8228504 131.216216,99.18 L131.216216,122.142857 L120.675676,122.142857 L120.675676,67.4228571 L131.216216,67.4228571 L131.216216,87.2914286 C131.594596,86.4228528 132.175672,85.5950039 132.959459,84.8078571 C133.743247,84.0207103 134.648643,83.355717 135.675676,82.8128571 C136.702708,82.2699973 137.837831,81.8357159 139.081081,81.51 C140.324331,81.1842841 141.621615,81.0214286 142.972973,81.0214286 C147.081101,81.0214286 150.418905,82.1478459 152.986486,84.4007143 C155.554066,86.6535827 156.837838,89.7885513 156.837838,93.8057143 L156.837838,122.142857 L146.216216,122.142857 L146.216216,122.142857 Z M170.702703,104.88 C170.864866,107.920015 171.743235,110.335705 173.337838,112.127143 C174.932441,113.91858 177.027014,114.814286 179.621622,114.814286 C181.351359,114.814286 182.878372,114.420718 184.202703,113.633571 C185.527034,112.846425 186.378377,111.74715 186.756757,110.335714 L197.621622,110.335714 C196.378372,114.461449 194.216231,117.637132 191.135135,119.862857 C188.054039,122.088583 184.3784,123.201429 180.108108,123.201429 C166.810745,123.201429 160.162162,115.927216 160.162162,101.378571 C160.162162,98.2842702 160.594591,95.4885839 161.459459,92.9914286 C162.324328,90.4942732 163.581073,88.350009 165.22973,86.5585714 C166.878386,84.7671339 168.89188,83.3964333 171.27027,82.4464286 C173.648661,81.4964238 176.378364,81.0214286 179.459459,81.0214286 C185.621653,81.0214286 190.283768,83.0028373 193.445946,86.9657143 C196.608124,90.9285912 198.189189,96.8999601 198.189189,104.88 L170.702703,104.88 L170.702703,104.88 Z M187.324324,98.2028571 C187.27027,96.7371355 187.013516,95.4478627 186.554054,94.335 C186.094592,93.2221373 185.486491,92.2992894 184.72973,91.5664286 C183.972969,90.8335678 183.108114,90.290716 182.135135,89.9378571 C181.162157,89.5849982 180.162168,89.4085714 179.135135,89.4085714 C177.027016,89.4085714 175.202711,90.1821351 173.662162,91.7292857 C172.121614,93.2764363 171.243245,95.4342719 171.027027,98.2028571 L187.324324,98.2028571 L187.324324,98.2028571 Z M262.891892,122.142857 L262.891892,85.0928571 L252.837838,122.142857 L241.648649,122.142857 L231.675676,85.2557143 L231.675676,122.142857 L221.216216,122.142857 L221.216216,68.0742857 L237.756757,68.0742857 L247.486486,107.73 L257.216216,68.0742857 L273.432432,68.0742857 L273.432432,122.142857 L262.891892,122.142857 L262.891892,122.142857 Z M302.378378,122.142857 C302.054053,121.111423 301.837838,119.91715 301.72973,118.56 C300.48648,119.971436 298.837849,121.097853 296.783784,121.939286 C294.729719,122.780718 292.351365,123.201429 289.648649,123.201429 C285.054031,123.201429 281.6892,122.183582 279.554054,120.147857 C277.418908,118.112133 276.351351,115.465731 276.351351,112.208571 C276.351351,109.331414 276.810807,107.037866 277.72973,105.327857 C278.648653,103.617849 279.918911,102.274291 281.540541,101.297143 C283.16217,100.319995 285.094584,99.6007166 287.337838,99.1392857 C289.581092,98.6778548 292.027014,98.2571448 294.675676,97.8771429 C297.324338,97.497141 299.108104,96.9950031 300.027027,96.3707143 C300.94595,95.7464255 301.405405,94.7285785 301.405405,93.3171429 C301.405405,92.0142792 300.797303,90.9964322 299.581081,90.2635714 C298.364859,89.5307106 296.729741,89.1642857 294.675676,89.1642857 C292.243231,89.1642857 290.500005,89.7071374 289.445946,90.7928571 C288.391886,91.8785769 287.729731,93.3171339 287.459459,95.1085714 L277.648649,95.1085714 C277.702703,93.045704 278.040538,91.145723 278.662162,89.4085714 C279.283786,87.6714199 280.283777,86.1785777 281.662162,84.93 C283.040547,83.6814223 284.837827,82.7178605 287.054054,82.0392857 C289.270281,81.3607109 291.972957,81.0214286 295.162162,81.0214286 C298.297314,81.0214286 300.959449,81.3742822 303.148649,82.08 C305.337849,82.7857178 307.094588,83.8035648 308.418919,85.1335714 C309.74325,86.4635781 310.7027,88.1192758 311.297297,90.1007143 C311.891895,92.0821528 312.189189,94.3214161 312.189189,96.8185714 L312.189189,122.142857 L302.378378,122.142857 L302.378378,122.142857 Z M301.648649,102.518571 C301.108105,103.061431 300.32433,103.495713 299.297297,103.821429 C298.270265,104.147144 296.783793,104.499998 294.837838,104.88 C291.810796,105.477146 289.729735,106.237138 288.594595,107.16 C287.459454,108.082862 286.891892,109.412848 286.891892,111.15 C286.891892,114.135729 288.594577,115.628571 292,115.628571 C293.351358,115.628571 294.608103,115.397859 295.77027,114.936429 C296.932438,114.474998 297.932428,113.850718 298.77027,113.063571 C299.608112,112.276425 300.283781,111.353577 300.797297,110.295 C301.310814,109.236423 301.567568,108.110006 301.567568,106.915714 L301.648649,102.518571 L301.648649,102.518571 Z M352.324324,107.648571 C352.054053,109.982869 351.391897,112.09999 350.337838,114 C349.283778,115.900009 347.945954,117.528565 346.324324,118.885714 C344.702695,120.242864 342.851362,121.301425 340.77027,122.061429 C338.689178,122.821432 336.432445,123.201429 334,123.201429 C331.297284,123.201429 328.824335,122.753576 326.581081,121.857857 C324.337827,120.962138 322.405414,119.605009 320.783784,117.786429 C319.162154,115.967848 317.905409,113.715013 317.013514,111.027857 C316.121618,108.340701 315.675676,105.205732 315.675676,101.622857 C315.675676,98.0399821 316.121618,94.9457273 317.013514,92.34 C317.905409,89.7342727 319.162154,87.6035797 320.783784,85.9478571 C322.405414,84.2921346 324.364854,83.0571469 326.662162,82.2428571 C328.959472,81.4285674 331.5135,81.0214286 334.324324,81.0214286 C336.918932,81.0214286 339.283773,81.3742822 341.418919,82.08 C343.554065,82.7857178 345.418911,83.8171361 347.013514,85.1742857 C348.608116,86.5314354 349.864861,88.1599905 350.783784,90.06 C351.702707,91.9600095 352.243242,94.0771312 352.405405,96.4114286 L341.783784,96.4114286 C341.513512,94.3485611 340.689196,92.7335773 339.310811,91.5664286 C337.932426,90.3992799 336.243253,89.8157143 334.243243,89.8157143 C333.108103,89.8157143 332.054059,90.0057124 331.081081,90.3857143 C330.108103,90.7657162 329.256761,91.4035669 328.527027,92.2992857 C327.797293,93.1950045 327.216219,94.3892782 326.783784,95.8821429 C326.351349,97.3750075 326.135135,99.207132 326.135135,101.378571 C326.135135,105.775736 326.918911,109.032847 328.486486,111.15 C330.054062,113.267153 331.864854,114.325714 333.918919,114.325714 C335.972984,114.325714 337.729723,113.75572 339.189189,112.615714 C340.648655,111.475709 341.486485,109.820011 341.702703,107.648571 L352.324324,107.648571 L352.324324,107.648571 Z M380.540541,122.142857 L380.540541,97.3071429 C380.540541,94.2671277 380.013519,92.1907198 378.959459,91.0778571 C377.9054,89.9649944 376.162174,89.4085714 373.72973,89.4085714 C372.432426,89.4085714 371.270276,89.666426 370.243243,90.1821429 C369.216211,90.6978597 368.351355,91.4035669 367.648649,92.2992857 C366.945942,93.1950045 366.41892,94.2264227 366.067568,95.3935714 C365.716215,96.5607201 365.540541,97.8228504 365.540541,99.18 L365.540541,122.142857 L355,122.142857 L355,67.4228571 L365.540541,67.4228571 L365.540541,87.2914286 C365.91892,86.4228528 366.499996,85.5950039 367.283784,84.8078571 C368.067572,84.0207103 368.972968,83.355717 370,82.8128571 C371.027032,82.2699973 372.162155,81.8357159 373.405405,81.51 C374.648655,81.1842841 375.945939,81.0214286 377.297297,81.0214286 C381.405426,81.0214286 384.743231,82.1478459 387.310811,84.4007143 C389.878391,86.6535827 391.162162,89.7885513 391.162162,93.8057143 L391.162162,122.142857 L380.540541,122.142857 L380.540541,122.142857 Z M395.621622,122.142857 L395.621622,82.08 L406.162162,82.08 L406.162162,122.142857 L395.621622,122.142857 L395.621622,122.142857 Z M395.621622,77.2757143 L395.621622,67.4228571 L406.162162,67.4228571 L406.162162,77.2757143 L395.621622,77.2757143 L395.621622,77.2757143 Z M436.162162,122.142857 L436.162162,97.8771429 C436.162162,94.7828417 435.648654,92.6928626 434.621622,91.6071429 C433.594589,90.5214231 431.83785,89.9785714 429.351351,89.9785714 C423.891865,89.9785714 421.162162,93.0456836 421.162162,99.18 L421.162162,122.142857 L410.621622,122.142857 L410.621622,82.08 L420.675676,82.08 L420.675676,87.9428571 C421.918926,85.6628457 423.567557,83.9392915 425.621622,82.7721429 C427.675686,81.6049942 430.324308,81.0214286 433.567568,81.0214286 C435.459469,81.0214286 437.216208,81.3064257 438.837838,81.8764286 C440.459468,82.4464314 441.851346,83.3014229 443.013514,84.4414286 C444.175681,85.5814343 445.094591,86.9792774 445.77027,88.635 C446.445949,90.2907226 446.783784,92.2042749 446.783784,94.3757143 L446.783784,122.142857 L436.162162,122.142857 L436.162162,122.142857 Z M460.648649,104.88 C460.810812,107.920015 461.689181,110.335705 463.283784,112.127143 C464.878386,113.91858 466.972959,114.814286 469.567568,114.814286 C471.297305,114.814286 472.824318,114.420718 474.148649,113.633571 C475.47298,112.846425 476.324323,111.74715 476.702703,110.335714 L487.567568,110.335714 C486.324318,114.461449 484.162177,117.637132 481.081081,119.862857 C477.999985,122.088583 474.324346,123.201429 470.054054,123.201429 C456.756691,123.201429 450.108108,115.927216 450.108108,101.378571 C450.108108,98.2842702 450.540536,95.4885839 451.405405,92.9914286 C452.270274,90.4942732 453.527019,88.350009 455.175676,86.5585714 C456.824332,84.7671339 458.837826,83.3964333 461.216216,82.4464286 C463.594607,81.4964238 466.324309,81.0214286 469.405405,81.0214286 C475.567599,81.0214286 480.229714,83.0028373 483.391892,86.9657143 C486.55407,90.9285912 488.135135,96.8999601 488.135135,104.88 L460.648649,104.88 L460.648649,104.88 Z M477.27027,98.2028571 C477.216216,96.7371355 476.959462,95.4478627 476.5,94.335 C476.040538,93.2221373 475.432436,92.2992894 474.675676,91.5664286 C473.918915,90.8335678 473.054059,90.290716 472.081081,89.9378571 C471.108103,89.5849982 470.108114,89.4085714 469.081081,89.4085714 C466.972962,89.4085714 465.148657,90.1821351 463.608108,91.7292857 C462.067559,93.2764363 461.189191,95.4342719 460.972973,98.2028571 L477.27027,98.2028571 L477.27027,98.2028571 Z M515.378378,94.2128571 C515.108107,92.3671336 514.418924,91.0235756 513.310811,90.1821429 C512.202697,89.3407101 510.513524,88.92 508.243243,88.92 C506.08107,88.92 504.445951,89.1778546 503.337838,89.6935714 C502.229724,90.2092883 501.675676,91.0914223 501.675676,92.34 C501.675676,93.4257197 502.229724,94.2942825 503.337838,94.9457143 C504.445951,95.5971461 506.054043,96.2214256 508.162162,96.8185714 C511.621639,97.7957192 514.540528,98.623568 516.918919,99.3021429 C519.297309,99.9807177 521.202696,100.781424 522.635135,101.704286 C524.067574,102.627147 525.094592,103.780707 525.716216,105.165 C526.337841,106.549293 526.648649,108.40856 526.648649,110.742857 C526.648649,114.325732 525.162177,117.297845 522.189189,119.659286 C519.216201,122.020726 514.810841,123.201429 508.972973,123.201429 C506.108093,123.201429 503.513526,122.875718 501.189189,122.224286 C498.864853,121.572854 496.878386,120.636435 495.22973,119.415 C493.581073,118.193565 492.310815,116.727866 491.418919,115.017857 C490.527023,113.307849 490.054054,111.394296 490,109.277143 L500.864865,109.277143 C500.864865,111.177152 501.608101,112.642852 503.094595,113.674286 C504.581088,114.705719 506.513501,115.221429 508.891892,115.221429 C510.891901,115.221429 512.608101,114.909289 514.040541,114.285 C515.47298,113.660711 516.189189,112.697149 516.189189,111.394286 C516.189189,109.928564 515.662168,108.870003 514.608108,108.218571 C513.554049,107.56714 511.945957,106.997145 509.783784,106.508571 C505.891873,105.639996 502.756769,104.730719 500.378378,103.780714 C497.999988,102.83071 496.148655,101.78572 494.824324,100.645714 C493.499993,99.5057086 492.608111,98.2571496 492.148649,96.9 C491.689186,95.5428504 491.459459,94.0228656 491.459459,92.34 C491.459459,90.8199924 491.770268,89.3814354 492.391892,88.0242857 C493.013516,86.6671361 493.999993,85.4728623 495.351351,84.4414286 C496.702709,83.4099948 498.459449,82.582146 500.621622,81.9578571 C502.783795,81.3335683 505.432416,81.0214286 508.567568,81.0214286 C514.297326,81.0214286 518.486473,82.1885598 521.135135,84.5228571 C523.783797,86.8571545 525.243242,90.0871222 525.513514,94.2128571 L515.378378,94.2128571 L515.378378,94.2128571 Z" id="Inevitable-Rise"></path>
                </g>
            </g>
            <path d="M538.972973,122.142857 L538.972973,111.15 L550.162162,111.15 L550.162162,122.142857 L538.972973,122.142857 Z M538.972973,94.5385714 L538.972973,83.6271429 L550.162162,83.6271429 L550.162162,94.5385714 L538.972973,94.5385714 Z" id=":" sketch:type="MSShapeGroup"></path>
        </g>
        <path d="M28.1042215,189.617226 C27.7761921,188.581698 27.5575092,187.382683 27.4481661,186.020146 C26.1907204,187.437185 24.523263,188.568074 22.4457439,189.412847 C20.3682249,190.25762 17.9627126,190.68 15.2291349,190.68 C10.5820529,190.68 7.17879972,189.658112 5.01927336,187.614307 C2.85974699,185.570501 1.78,182.913593 1.78,179.643504 C1.78,176.754925 2.24470124,174.452271 3.17411765,172.735474 C4.10353406,171.018678 5.3882963,169.669786 7.02844291,168.688759 C8.66858952,167.707732 10.6230682,166.985598 12.8919377,166.522336 C15.1608072,166.059073 17.6346579,165.636693 20.313564,165.255182 C22.9924701,164.873672 24.7966043,164.369541 25.7260208,163.742774 C26.6554372,163.116007 27.1201384,162.094119 27.1201384,160.67708 C27.1201384,159.369045 26.5050927,158.347157 25.2749827,157.611387 C24.0448727,156.875617 22.3910831,156.507737 20.313564,156.507737 C17.8533441,156.507737 16.0902129,157.052744 15.0241176,158.142774 C13.9580224,159.232804 13.2883059,160.677071 13.0149481,162.47562 L3.09211073,162.47562 C3.14678228,160.404564 3.48847437,158.49704 4.11719723,156.752993 C4.7459201,155.008945 5.75732867,153.510177 7.15145329,152.256642 C8.5455779,151.003108 10.3633798,150.035721 12.6049135,149.354453 C14.8464472,148.673184 17.5799839,148.332555 20.8056055,148.332555 C23.9765556,148.332555 26.6690893,148.686809 28.8832872,149.395328 C31.0974851,150.103848 32.874284,151.125735 34.213737,152.461022 C35.5531901,153.796308 36.5235956,155.458579 37.1249827,157.447883 C37.7263698,159.437188 38.0270588,161.68534 38.0270588,164.192409 L38.0270588,189.617226 L28.1042215,189.617226 Z M27.3661592,169.915036 C26.8194436,170.460051 26.026718,170.896057 24.9879585,171.223066 C23.949199,171.550075 22.4457538,171.904329 20.4775779,172.285839 C17.4159709,172.885356 15.3111476,173.648365 14.163045,174.574891 C13.0149424,175.501416 12.4408997,176.836682 12.4408997,178.58073 C12.4408997,181.578312 14.1630278,183.07708 17.6073356,183.07708 C18.9741245,183.07708 20.245219,182.845452 21.4206574,182.38219 C22.5960958,181.918927 23.6075044,181.292169 24.4549135,180.501898 C25.3023226,179.711626 25.9857067,178.785115 26.5050865,177.722336 C27.0244663,176.659557 27.2841522,175.528668 27.2841522,174.329635 L27.3661592,169.915036 Z M42.2914187,189.617226 L42.2914187,149.395328 L52.296263,149.395328 L52.296263,154.218686 C53.1710078,152.856149 54.0867426,151.793386 55.0434948,151.030365 C56.000247,150.267344 56.9843202,149.681462 57.9957439,149.272701 C59.0071677,148.86394 60.0322439,148.605061 61.0710035,148.496058 C62.109763,148.387055 63.1758423,148.332555 64.2692734,148.332555 L65.663391,148.332555 L65.663391,159.205547 C64.679303,159.042043 63.6952298,158.960292 62.7111419,158.960292 C56.205227,158.960292 52.9523183,162.203082 52.9523183,168.688759 L52.9523183,189.617226 L42.2914187,189.617226 Z M102.97654,175.065401 C102.703182,177.408965 102.033466,179.534492 100.96737,181.442044 C99.9012749,183.349596 98.5481743,184.984616 96.9080277,186.347153 C95.2678811,187.709691 93.3954084,188.772454 91.2905536,189.535474 C89.1856988,190.298495 86.9031957,190.68 84.4429758,190.68 C81.7093981,190.68 79.208212,190.230369 76.9393426,189.331095 C74.6704731,188.43182 72.7159944,187.069304 71.0758478,185.243504 C69.4357011,183.417704 68.1646066,181.155926 67.262526,178.458102 C66.3604453,175.760278 65.9094118,172.612865 65.9094118,169.015766 C65.9094118,165.418668 66.3604453,162.31213 67.262526,159.696058 C68.1646066,157.079987 69.4357011,154.940836 71.0758478,153.27854 C72.7159944,151.616245 74.6978085,150.376354 77.0213495,149.558832 C79.3448905,148.74131 81.9280827,148.332555 84.7710035,148.332555 C87.395238,148.332555 89.7870826,148.686809 91.946609,149.395328 C94.1061354,150.103848 95.9922757,151.139361 97.6050865,152.501898 C99.2178973,153.864435 100.488992,155.499455 101.418408,157.407007 C102.347825,159.314559 102.894532,161.440086 103.058547,163.78365 L92.3156401,163.78365 C92.0422824,161.712593 91.2085537,160.091198 89.8144291,158.919416 C88.4203044,157.747634 86.711844,157.161752 84.6889965,157.161752 C83.5408939,157.161752 82.4748146,157.352504 81.4907266,157.734015 C80.5066387,158.115525 79.6455746,158.755908 78.9075087,159.655182 C78.1694427,160.554457 77.5817323,161.753472 77.1443599,163.252263 C76.7069874,164.751054 76.4883045,166.590451 76.4883045,168.770511 C76.4883045,173.185132 77.2810301,176.455172 78.8665052,178.58073 C80.4519802,180.706288 82.2834498,181.769051 84.3609689,181.769051 C86.4384879,181.769051 88.2152867,181.196794 89.6914187,180.052263 C91.1675506,178.907732 92.014947,177.245461 92.2336332,175.065401 L102.97654,175.065401 Z M131.514948,189.617226 L131.514948,164.68292 C131.514948,161.630836 130.981908,159.546186 129.915813,158.428905 C128.849718,157.311625 127.086587,156.752993 124.626367,156.752993 C123.314249,156.752993 122.138829,157.011871 121.100069,157.529635 C120.06131,158.047399 119.186578,158.755908 118.475848,159.655182 C117.765118,160.554457 117.232078,161.58997 116.876713,162.761752 C116.521348,163.933534 116.343668,165.200674 116.343668,166.563212 L116.343668,189.617226 L105.682768,189.617226 L105.682768,134.68 L116.343668,134.68 L116.343668,154.627445 C116.726369,153.755421 117.314079,152.924286 118.106817,152.134015 C118.899554,151.343743 119.815289,150.67611 120.854048,150.131095 C121.892808,149.58608 123.040893,149.150075 124.298339,148.823066 C125.555785,148.496057 126.867882,148.332555 128.234671,148.332555 C132.389709,148.332555 135.765627,149.463444 138.362526,151.725255 C140.959425,153.987067 142.257855,157.134481 142.257855,161.167591 L142.257855,189.617226 L131.514948,189.617226 Z M146.768235,189.617226 L146.768235,149.395328 L157.429135,149.395328 L157.429135,189.617226 L146.768235,189.617226 Z M146.768235,144.571971 L146.768235,134.68 L157.429135,134.68 L157.429135,144.571971 L146.768235,144.571971 Z M174.486574,189.617226 L160.053356,149.395328 L171.94436,149.395328 L180.391073,175.964672 L188.919792,149.395328 L200.15474,149.395328 L185.639516,189.617226 L174.486574,189.617226 Z M209.831557,172.285839 C209.995572,175.337923 210.883971,177.763203 212.496782,179.561752 C214.109593,181.360301 216.228084,182.259562 218.852318,182.259562 C220.601808,182.259562 222.146256,181.864432 223.485709,181.074161 C224.825162,180.283889 225.686226,179.18025 226.068927,177.763212 L237.057855,177.763212 C235.800409,181.905325 233.61358,185.093614 230.497301,187.328175 C227.381022,189.562736 223.663413,190.68 219.34436,190.68 C205.895158,190.68 199.170657,183.37691 199.170657,168.770511 C199.170657,165.663926 199.608023,162.857141 200.482768,160.350073 C201.357513,157.843004 202.628608,155.690228 204.29609,153.891679 C205.963572,152.09313 208.000057,150.716988 210.405606,149.763212 C212.811154,148.809436 215.572026,148.332555 218.688304,148.332555 C224.920862,148.332555 229.636212,150.321829 232.834498,154.300438 C236.032784,158.279047 237.631903,164.274121 237.631903,172.285839 L209.831557,172.285839 Z M226.642976,165.58219 C226.588304,164.11065 226.328618,162.816259 225.86391,161.698978 C225.399202,160.581698 224.784156,159.655186 224.018754,158.919416 C223.253353,158.183646 222.378621,157.638639 221.394533,157.28438 C220.410445,156.93012 219.399036,156.752993 218.360277,156.752993 C216.228086,156.752993 214.382949,157.529627 212.82481,159.08292 C211.26667,160.636212 210.378271,162.802614 210.159585,165.58219 L226.642976,165.58219 Z" id="archive" fill="#000000" sketch:type="MSShapeGroup"></path>
    </g>
</svg>