<?xml version="1.0" encoding="UTF-8" standalone="no"?>
<svg width="33px" height="33px" viewBox="0 0 33 33" version="1.1" xmlns="http://www.w3.org/2000/svg" xmlns:xlink="http://www.w3.org/1999/xlink" xmlns:sketch="http://www.bohemiancoding.com/sketch/ns">
    <title>Untitled</title>
    <description>Created with Sketch (http://www.bohemiancoding.com/sketch)</description>
    <defs></defs>
    <g id="Page-1" stroke="none" stroke-width="1" fill="none" fill-rule="evenodd" sketch:type="MSPage">
        <path d="M15.36,20.64 L17.248,11.808 L8.16,11.808 L7.552,14.624 L12.608,14.624 L13.536,15.776 L12.512,20.512 C11.904,23.36 13.856,25.824 16.96,25.824 C19.456,25.824 21.792,23.936 23.456,20.192 L21.056,19.04 C19.776,21.856 18.304,22.88 17.152,22.88 C15.808,22.88 15.072,21.92 15.36,20.64 Z M15.968,9.6 C17.568,9.6 18.752,8.416 18.752,6.912 C18.752,5.312 17.568,4.128 15.968,4.128 C14.464,4.128 13.28,5.312 13.28,6.912 C13.28,8.416 14.464,9.6 15.968,9.6 Z" id="i" sketch:type="MSShapeGroup"></path>
    </g>
</svg>
