<?xml version="1.0" encoding="UTF-8" standalone="no"?>
<svg width="92px" height="93px" viewBox="0 0 92 93" version="1.1" xmlns="http://www.w3.org/2000/svg" xmlns:xlink="http://www.w3.org/1999/xlink" xmlns:sketch="http://www.bohemiancoding.com/sketch/ns">
    <!-- Generator: Sketch 3.5.2 (25235) - http://www.bohemiancoding.com/sketch -->
    <title>Untitled</title>
    <desc>Created with Sketch.</desc>
    <defs></defs>
    <g id="Page-1" stroke="none" stroke-width="1" fill="none" fill-rule="evenodd" sketch:type="MSPage">
        <g id="noun_93099_cc" sketch:type="MSLayerGroup" fill="#799938">
            <g id="Group" sketch:type="MSShapeGroup">
                <circle id="Oval" cx="39.565" cy="22.68" r="2.784"></circle>
                <rect id="Rectangle-path" x="35.406" y="73.881" width="6.36" height="2.444"></rect>
                <rect id="Rectangle-path" x="35.406" y="77.601" width="6.36" height="2.444"></rect>
                <rect id="Rectangle-path" x="35.406" y="80.921" width="6.36" height="2.444"></rect>
                <path d="M41.767,86.555 L41.767,84.644 L35.407,84.644 L35.407,86.555 C33.29,87.694 31.847,89.926 31.847,92.5 L45.33,92.5 C45.326,89.926 43.884,87.69 41.767,86.555 L41.767,86.555 Z" id="Shape"></path>
                <rect id="Rectangle-path" x="50" y="73.881" width="6.363" height="2.444"></rect>
                <rect id="Rectangle-path" x="50" y="77.601" width="6.363" height="2.444"></rect>
                <rect id="Rectangle-path" x="50" y="80.921" width="6.363" height="2.444"></rect>
                <path d="M56.364,86.555 L56.364,84.644 L50,84.644 L50,86.555 C47.88,87.694 46.438,89.926 46.438,92.5 L59.921,92.5 C59.923,89.926 58.481,87.69 56.364,86.555 L56.364,86.555 Z" id="Shape"></path>
                <path d="M52.008,19.896 C53.547,19.896 54.793,21.142 54.793,22.681 C54.793,24.218 53.547,25.465 52.008,25.465 C50.473,25.465 49.225,24.218 49.225,22.681 C49.225,21.142 50.473,19.896 52.008,19.896 L52.008,19.896 Z" id="Shape"></path>
                <path d="M74.029,63.486 L74.038,63.483 L62.105,39.876 L62.1,39.879 L62.1,39.876 L52.825,39.876 L52.825,34.006 L59.286,34.006 L59.286,15.002 L51.458,15.002 L51.458,11.088 L46.278,11.088 L46.278,2.893 L47.339,2.893 L47.339,0 L45.79,0 L44.236,0 L44.236,2.894 L45.298,2.894 L45.298,11.089 L40.121,11.089 L40.121,15.003 L32.293,15.003 L32.293,34.003 L38.754,34.003 L38.754,39.874 L29.397,39.874 L22.281,48.644 L9.662,37.214 L9.662,32.574 L7.119,32.574 L7.119,39.081 L0.612,39.081 L0.612,41.624 L5.792,41.624 L22.924,57.145 L29.4,49.208 L29.4,68.335 L35.272,68.335 L35.272,72.735 L41.629,72.735 L41.629,68.335 L49.868,68.335 L49.868,72.735 L56.228,72.735 L56.228,68.335 L62.1,68.335 L62.1,52.869 L68.397,65.327 L66.388,70.092 L68.731,71.08 L71.26,65.084 L77.255,67.613 L78.245,65.264 L74.029,63.486 L74.029,63.486 Z M56.744,22.68 C56.744,25.293 54.624,27.411 52.008,27.411 C49.397,27.411 47.277,25.292 47.277,22.68 C47.277,20.066 49.397,17.948 52.008,17.948 C54.624,17.948 56.744,20.066 56.744,22.68 L56.744,22.68 Z M34.833,22.68 C34.833,20.066 36.95,17.948 39.564,17.948 C42.178,17.948 44.295,20.066 44.295,22.68 C44.295,25.293 42.178,27.411 39.564,27.411 C36.95,27.411 34.833,25.293 34.833,22.68 L34.833,22.68 Z M48.499,61.931 L34.351,61.931 L34.351,58.171 L48.499,58.171 L48.499,61.931 L48.499,61.931 Z M48.499,55.98 L34.351,55.98 L34.351,52.217 L48.499,52.217 L48.499,55.98 L48.499,55.98 Z M48.499,49.914 L34.351,49.914 L34.351,46.154 L48.499,46.154 L48.499,49.914 L48.499,49.914 Z M45.789,31.19 L40.486,31.19 L40.486,29.314 L45.789,29.314 L51.087,29.314 L51.087,31.19 L45.789,31.19 L45.789,31.19 Z M57.428,61.931 L50.619,61.931 L50.619,58.171 L57.428,58.171 L57.428,61.931 L57.428,61.931 Z M57.428,55.98 L50.619,55.98 L50.619,52.217 L57.428,52.217 L57.428,55.98 L57.428,55.98 Z M57.428,49.914 L50.619,49.914 L50.619,46.154 L57.428,46.154 L57.428,49.914 L57.428,49.914 Z" id="Shape"></path>
            </g>
        </g>
    </g>
</svg>
