<?xml version="1.0" encoding="UTF-8" standalone="no"?>
<svg width="64px" height="64px" viewBox="0 0 64 64" version="1.1" xmlns="http://www.w3.org/2000/svg" xmlns:xlink="http://www.w3.org/1999/xlink" xmlns:sketch="http://www.bohemiancoding.com/sketch/ns">
    <title>Slice 1</title>
    <description>Created with Sketch (http://www.bohemiancoding.com/sketch)</description>
    <defs></defs>
    <g id="Page-1" stroke="none" stroke-width="1" fill="none" fill-rule="evenodd" sketch:type="MSPage">
        <g id="twitter" sketch:type="MSLayerGroup" transform="translate(8.000000, 13.000000)" fill="#ffffff">
            <g id="Page-1" sketch:type="MSShapeGroup">
                <path d="M17.6436508,41.8723846 C8.36666667,41.8723846 0.788888889,37.3388077 0.665079365,37.2628846 C-0.0603174603,36.8178462 -0.378571429,35.9164615 -0.1,35.1023077 C0.180952381,34.2905769 0.974603175,33.7768846 1.82539683,33.9053077 C6.85,34.5894231 10.3492063,32.9780769 12.2238095,31.7043462 C7.57777778,28.1214231 -2.82222222,18.0107308 3.55793651,3.01996154 C3.82063492,2.40207692 4.4,1.98126923 5.05793651,1.92876923 C5.70238095,1.88353846 6.3531746,2.20096154 6.70634921,2.76876923 C6.8968254,3.07165385 11.3706349,9.92169231 22.552381,11.3561538 C22.5777778,5.15146154 27.5444444,0.111461538 33.6436508,0.111461538 C36.3642857,0.111461538 38.9285714,1.10492308 40.9587302,2.9295 C43.8928571,2.61207692 46.2039683,2.54342308 46.3111111,2.53938462 C46.5531746,2.54180769 46.7833333,2.57492308 46.9920635,2.65569231 C47.3849206,2.50869231 47.8269841,2.49738462 48.252381,2.65811538 C49.1730159,3.01269231 49.6380952,4.06107692 49.2896825,4.998 C48.947619,5.92119231 47.3039683,10.1349231 45.0674603,12.2906538 C45.6253968,17.5317692 44.3468254,25.2363462 36.0896825,33.8899615 C30.2531746,40.005 23.5984127,41.8723846 17.6436508,41.8723846 L17.6436508,41.8723846 L17.6436508,41.8723846 Z M9.21984127,37.0310769 C15.6206349,38.976 25.4404762,39.8305385 33.5269841,31.3594615 C41.3301587,23.1807692 42.1134921,16.212 41.397619,11.8084615 C41.2793651,11.0750769 41.6119048,10.3416923 42.2373016,9.95561538 C43.0420635,9.46373077 44.0301587,7.88307692 44.8412698,6.24992308 C43.7579365,6.31615385 42.2134921,6.43488462 40.5396825,6.636 C39.9912698,6.69253846 39.4349206,6.50353846 39.0468254,6.09403846 C37.6079365,4.57961538 35.6873016,3.74688462 33.6428571,3.74688462 C29.4968254,3.74688462 26.1230159,7.18280769 26.1230159,11.4038077 C26.1230159,11.9554615 26.1761905,12.4828846 26.2857143,12.9699231 C26.4063492,13.5280385 26.2650794,14.1103846 25.902381,14.5457308 C25.5373016,14.9810769 24.984127,15.2177308 24.4349206,15.1821923 C14.5761905,14.5764231 8.69603175,10.2132692 5.83174603,7.30961538 C1.90238095,21.4434231 15.4507937,29.631 16.0666667,29.9952692 C16.5293651,30.2674615 16.85,30.7407692 16.9365079,31.2778846 C17.0198413,31.8174231 16.8642857,32.3666538 16.5087302,32.7753462 C16.3626984,32.9465769 13.884127,35.7201923 9.21984127,37.0310769 L9.21984127,37.0310769 L9.21984127,37.0310769 Z" id="Shape"></path>
            </g>
        </g>
    </g>
</svg>
