<?xml version="1.0" encoding="UTF-8"?><!DOCTYPE svg PUBLIC "-//W3C//DTD SVG 1.1//EN" "http://www.w3.org/Graphics/SVG/1.1/DTD/svg11.dtd"><svg xmlns="http://www.w3.org/2000/svg"><symbol id="about" viewBox="0 0 33 33"><title>Untitled</title><path d="M15.36 20.64l1.888-8.832H8.16l-.608 2.816h5.056l.928 1.152-1.024 4.736c-.608 2.848 1.344 5.312 4.448 5.312 2.496 0 4.832-1.888 6.496-5.632l-2.4-1.152c-1.28 2.816-2.752 3.84-3.904 3.84-1.344 0-2.08-.96-1.792-2.24zm.608-11.04c1.6 0 2.784-1.184 2.784-2.688 0-1.6-1.184-2.784-2.784-2.784-1.504 0-2.688 1.184-2.688 2.784 0 1.504 1.184 2.688 2.688 2.688z" fill="#fff" fill-rule="evenodd"/></symbol><symbol id="arrow" viewBox="0 0 25 10"><title>Slice 1</title><path d="M20.286 6v3.49c0 .17.056.295.17.372.112.07.217.043.312-.077l3.428-4.563c.06-.086.09-.19.09-.31 0-.112-.03-.21-.09-.296L20.768.104c-.095-.112-.2-.133-.313-.065-.113.068-.17.193-.17.373V4H1.004C.45 4 0 4.444 0 5c0 .552.44 1 1.003 1h19.283z" fill-rule="evenodd"/></symbol><symbol id="menu" viewBox="0 0 33 33"><title>Untitled</title><path d="M15.36 20.64l1.888-8.832H8.16l-.608 2.816h5.056l.928 1.152-1.024 4.736c-.608 2.848 1.344 5.312 4.448 5.312 2.496 0 4.832-1.888 6.496-5.632l-2.4-1.152c-1.28 2.816-2.752 3.84-3.904 3.84-1.344 0-2.08-.96-1.792-2.24zm.608-11.04c1.6 0 2.784-1.184 2.784-2.688 0-1.6-1.184-2.784-2.784-2.784-1.504 0-2.688 1.184-2.688 2.784 0 1.504 1.184 2.688 2.688 2.688z" fill="none" fill-rule="evenodd"/></symbol><symbol id="twitter" viewBox="0 0 64 64"><title>Slice 1</title><path d="M25.644 54.872c-9.277 0-16.855-4.533-16.98-4.61-.724-.444-1.043-1.346-.764-2.16.28-.81 1.075-1.325 1.925-1.197 5.025.684 8.524-.927 10.4-2.2C15.577 41.12 5.177 31.01 11.557 16.02c.263-.618.842-1.04 1.5-1.09.644-.046 1.295.27 1.648.84.19.302 4.665 7.152 15.846 8.586.026-6.205 4.992-11.245 11.092-11.245 2.72 0 5.285.995 7.315 2.82 2.933-.318 5.244-.387 5.35-.39.243.002.473.035.682.116.393-.147.835-.16 1.26.002.92.355 1.386 1.403 1.038 2.34-.342.923-1.986 5.137-4.223 7.293.558 5.242-.72 12.946-8.977 21.6-5.837 6.115-12.492 7.982-18.446 7.982zm-8.424-4.84c6.4 1.944 16.22 2.8 24.307-5.673 7.803-8.18 8.586-15.148 7.87-19.552-.118-.733.215-1.466.84-1.852.805-.492 1.793-2.073 2.604-3.706-1.082.066-2.627.185-4.3.386-.55.057-1.105-.132-1.493-.542-1.44-1.514-3.36-2.347-5.404-2.347-4.146 0-7.52 3.436-7.52 7.657 0 .55.053 1.08.163 1.566.12.558-.02 1.14-.384 1.576-.365.435-.918.672-1.467.636-9.86-.606-15.74-4.97-18.603-7.872-3.93 14.133 9.62 22.32 10.235 22.685.462.272.783.746.87 1.283.083.54-.073 1.09-.428 1.497-.147.172-2.626 2.945-7.29 4.256z" fill="#fff" fill-rule="evenodd"/></symbol></svg>